<svg width="29" height="33" viewBox="0 0 29 33" fill="none" xmlns="http://www.w3.org/2000/svg">
<path id="Vector" d="M19.107 27.5035C18.0807 27.5035 17.2053 27.1407 16.481 26.4152C15.7566 25.6896 15.3938 24.8149 15.3926 23.7909C15.3915 22.767 15.7542 21.8911 16.481 21.1632C17.2077 20.4353 18.083 20.0731 19.107 20.0766C20.1309 20.0801 21.0063 20.4429 21.733 21.1649C22.4597 21.887 22.8219 22.7623 22.8195 23.7909C22.8172 24.8196 22.4544 25.6949 21.7312 26.4169C21.008 27.139 20.1333 27.5011 19.107 27.5035ZM2.83489 32.7695C2.02743 32.7695 1.35337 32.4992 0.812726 31.9586C0.272079 31.4179 0.00117023 30.7433 0 29.9346V7.51884C0 6.71138 0.270908 6.03733 0.812726 5.49668C1.35454 4.95604 2.02918 4.68513 2.83664 4.68396H5.94185V0.769531H7.83236V4.68396H20.3901V0.769531H22.1455V4.68396H25.2507C26.0581 4.68396 26.7328 4.95487 27.2746 5.49668C27.8164 6.0385 28.0867 6.71314 28.0856 7.5206V29.9346C28.0856 30.7421 27.8152 31.4167 27.2746 31.9586C26.734 32.5004 26.0587 32.7707 25.2489 32.7695H2.83489ZM2.83489 31.0142H25.2507C25.5198 31.0142 25.7673 30.9018 25.9932 30.6772C26.2191 30.4525 26.3314 30.2044 26.3302 29.9329V14.542H1.75535V29.9346C1.75535 30.2038 1.86769 30.4513 2.09237 30.6772C2.31706 30.903 2.56456 31.0154 2.83489 31.0142Z" fill="url(#paint0_linear_199_1153)"/>
<defs>
<linearGradient id="paint0_linear_199_1153" x1="28" y1="27.9995" x2="-5.45215e-07" y2="4.99951" gradientUnits="userSpaceOnUse">
<stop stop-color="#0054F7"/>
<stop offset="1" stop-color="#003FB9"/>
</linearGradient>
</defs>
</svg>
