<svg width="32" height="32" viewBox="0 0 32 32" fill="none" xmlns="http://www.w3.org/2000/svg">
<path id="Vector" d="M16 0C7.17664 0 0 7.17664 0 16C0 24.8234 7.17664 32 16 32C24.8234 32 32 24.8234 32 16C32 7.17664 24.8234 0 16 0ZM16.8019 2.26496C20.9037 2.49952 24.5155 4.52192 26.8774 7.56672C26.2541 7.55051 25.6335 7.54699 25.0157 7.55616C23.943 7.57386 22.8714 7.63065 21.8029 7.7264C21.6064 7.32083 21.2997 6.97877 20.9178 6.73938C20.536 6.5 20.0945 6.37296 19.6438 6.3728C19.5322 6.37281 19.4207 6.38062 19.3101 6.39616C18.5587 4.96941 17.7211 3.58978 16.8019 2.26496ZM14.857 2.29056C16.0208 3.88064 17.0298 5.49472 17.8931 7.1312C17.572 7.47375 17.3583 7.903 17.2787 8.36576C15.786 8.65681 14.3089 9.02314 12.8531 9.46336C12.672 9.21845 12.4459 9.01027 12.1869 8.84992C12.7907 6.69472 13.6355 4.51104 14.7155 2.30112C14.7626 2.29696 14.8099 2.29472 14.857 2.29056ZM12.7962 2.6176C11.8938 4.5904 11.1738 6.55584 10.6381 8.5088C10.314 8.54768 10.0013 8.65224 9.71907 8.81609C9.43681 8.97995 9.19094 9.19965 8.99648 9.46176C7.5526 9.00145 6.09022 8.60131 4.61312 8.2624C6.54093 5.42568 9.4597 3.41226 12.7962 2.6176ZM25.9555 9.15136C26.625 9.15552 27.2976 9.17696 27.9738 9.21216C28.7821 10.6356 29.328 12.1927 29.5856 13.8093C27.6496 14.1242 25.7648 14.5603 23.9299 15.1101C23.7318 14.8648 23.4874 14.6609 23.2105 14.5102C22.9336 14.3594 22.6297 14.2647 22.3162 14.2314C22.0077 13.0034 21.632 11.7934 21.1907 10.6067C21.5876 10.2719 21.8652 9.81735 21.9818 9.31136C23.2934 9.19744 24.6173 9.14272 25.9555 9.15136ZM3.75424 9.7152C5.38688 10.0746 6.97984 10.4947 8.5264 10.9885L8.52672 10.9981C6.44416 11.8534 4.39648 12.8621 2.38304 14.0179C2.5983 12.5176 3.06169 11.0635 3.75424 9.7152ZM17.5443 9.93408C17.7518 10.3091 18.0559 10.6218 18.425 10.8396C18.7942 11.0574 19.2149 11.1723 19.6435 11.1725L19.7082 11.1709C20.1264 12.2912 20.4828 13.4336 20.7757 14.593C20.6555 14.6692 20.5423 14.7559 20.4374 14.8522C18.1808 13.3814 15.7985 12.1132 13.3184 11.0624C13.3203 11.0351 13.3218 11.0078 13.3229 10.9805C14.7117 10.561 16.1204 10.2118 17.5443 9.93408ZM9.12224 12.4752C9.2987 12.6759 9.50744 12.8457 9.73984 12.9776C9.3456 16.0627 9.43296 19.1046 10.0346 22.0803C8.61667 23.1169 7.25074 24.2228 5.94176 25.3939C3.64544 22.9366 2.24 19.6371 2.24 16C2.24 15.985 2.24128 15.9706 2.24128 15.9555C4.49632 14.6006 6.78848 13.4371 9.12192 12.4755M12.6806 12.5264C15.1253 13.5594 17.4712 14.8122 19.6893 16.2694C19.6721 16.3849 19.6633 16.5015 19.663 16.6182V16.6333C16.7958 17.8253 14.0586 19.3149 11.448 21.0858C10.9968 18.5264 10.9488 15.9178 11.2858 13.2637C11.8205 13.1821 12.3121 12.9223 12.6806 12.5264ZM29.745 15.4045C29.7533 15.6019 29.76 15.8003 29.76 16C29.7623 17.9489 29.3497 19.876 28.5494 21.6531C27.2026 20.2189 25.7628 18.875 24.2394 17.6301C24.3861 17.3146 24.4626 16.971 24.4634 16.623C26.1966 16.1067 27.9607 15.6997 29.745 15.4045ZM20.2032 18.1338C20.5486 18.5577 21.0284 18.851 21.5632 18.9651C21.9133 22.136 21.8064 25.3862 21.265 28.7187C19.5953 29.408 17.8063 29.7618 16 29.76C15.527 29.76 15.0604 29.7366 14.6 29.6899C13.3162 27.4294 12.3891 25.1235 11.8067 22.7757C14.4717 20.9123 17.2669 19.3597 20.2032 18.1338ZM23.1411 18.793C24.7855 20.133 26.3296 21.5915 27.7613 23.1568C26.5854 25.0855 24.9538 26.6959 23.0099 27.8464C23.4211 24.7738 23.4707 21.7523 23.1411 18.793ZM10.4339 23.7709C10.9427 25.6566 11.6608 27.5139 12.5949 29.3366C10.5722 28.8225 8.69378 27.853 7.10304 26.5021C8.19008 25.5357 9.30016 24.6237 10.4339 23.7709Z" fill="url(#paint0_linear_199_697)"/>
<defs>
<linearGradient id="paint0_linear_199_697" x1="32" y1="32" x2="-2.38419e-07" y2="4" gradientUnits="userSpaceOnUse">
<stop stop-color="#0054F7"/>
<stop offset="1" stop-color="#003FB9"/>
</linearGradient>
</defs>
</svg>
