<svg width="40" height="40" viewBox="0 0 40 40" fill="none" xmlns="http://www.w3.org/2000/svg">
<g id="eos-icons:trusted-organization">
<path id="Vector" d="M31.6666 15.0001C31.6673 12.9916 31.1495 11.0169 30.1633 9.2672C29.1771 7.5175 27.7559 6.05204 26.0372 5.01268C24.3186 3.97332 22.3607 3.39525 20.3531 3.33445C18.3455 3.27365 16.3563 3.73216 14.5779 4.6656C12.7994 5.59905 11.2921 6.97581 10.2018 8.66262C9.11155 10.3494 8.47519 12.2891 8.35438 14.294C8.23357 16.2989 8.63238 18.301 9.51223 20.1065C10.3921 21.912 11.7231 23.4598 13.3766 24.6001L8.33325 33.3334L12.0933 33.4884L14.1066 36.6667L19.8833 26.6601L19.9999 26.6667C20.0583 26.6701 20.0766 26.6617 20.1166 26.6601L25.8933 36.6667L27.9466 33.5567L31.6666 33.3334L26.6233 24.6001C28.1793 23.5287 29.4514 22.0951 30.33 20.4226C31.2086 18.7502 31.6673 16.8892 31.6666 15.0001ZM11.6666 15.0001C11.6666 13.3519 12.1553 11.7407 13.071 10.3703C13.9867 8.99991 15.2882 7.9318 16.8109 7.30107C18.3336 6.67034 20.0092 6.50531 21.6257 6.82686C23.2422 7.1484 24.727 7.94207 25.8925 9.10751C27.0579 10.2729 27.8516 11.7578 28.1731 13.3743C28.4947 14.9908 28.3296 16.6664 27.6989 18.1891C27.0682 19.7118 26.0001 21.0133 24.6297 21.929C23.2593 22.8447 21.6481 23.3334 19.9999 23.3334C17.7898 23.3334 15.6702 22.4554 14.1074 20.8926C12.5446 19.3298 11.6666 17.2102 11.6666 15.0001Z" fill="url(#paint0_linear_199_1456)"/>
<path id="Vector_2" d="M20 20C22.7614 20 25 17.7614 25 15C25 12.2386 22.7614 10 20 10C17.2386 10 15 12.2386 15 15C15 17.7614 17.2386 20 20 20Z" fill="#0054F7"/>
</g>
<defs>
<linearGradient id="paint0_linear_199_1456" x1="7.99991" y1="7" x2="31.9999" y2="31" gradientUnits="userSpaceOnUse">
<stop stop-color="#003FB9"/>
<stop offset="1" stop-color="#0054F7"/>
</linearGradient>
</defs>
</svg>
