<svg width="45" height="34" viewBox="0 0 45 34" fill="none" xmlns="http://www.w3.org/2000/svg">
<path id="Vector" d="M44.6274 12.0033L40.1397 3.03844C39.9341 2.62472 39.6489 2.25558 39.3006 1.95213C38.9522 1.64868 38.5475 1.41686 38.1094 1.26993C37.6714 1.12301 37.2088 1.06385 36.7479 1.09585C36.287 1.12784 35.8369 1.25037 35.4234 1.45641L31.3488 3.49371L23.1504 0.835902C22.7274 0.700533 22.2726 0.700533 21.8496 0.835902L13.6512 3.49371L9.57657 1.45641C9.16307 1.25037 8.71301 1.12784 8.25213 1.09585C7.79125 1.06385 7.32858 1.12301 6.89057 1.26993C6.45257 1.41686 6.04781 1.64868 5.69946 1.95213C5.3511 2.25558 5.06597 2.62472 4.86036 3.03844L0.372667 12.0033C0.166624 12.4168 0.0441013 12.8668 0.0121043 13.3277C-0.0198927 13.7886 0.0392634 14.2513 0.186191 14.6893C0.333118 15.1273 0.564934 15.532 0.868387 15.8804C1.17184 16.2288 1.54098 16.5139 1.9547 16.7195L6.64278 19.0644L15.6393 25.6404C15.8525 25.7961 16.0927 25.9111 16.3477 25.9797L27.2461 28.7922C27.4185 28.836 27.5956 28.8585 27.7734 28.8589C28.3327 28.8585 28.8689 28.6359 29.2641 28.2402L38.5137 18.9906L43.0541 16.7195C43.8881 16.3027 44.5224 15.5717 44.8174 14.6872C45.1125 13.8028 45.0441 12.8373 44.6274 12.0033ZM34.4109 17.1273L29.5734 12.557C29.1735 12.1787 28.6416 11.9717 28.0911 11.9802C27.5406 11.9887 27.0153 12.2121 26.6274 12.6027C24.9293 14.3148 22.2223 15.5576 19.4537 14.2814L26.1668 7.7775H30.1606L34.6975 16.8531L34.4109 17.1273ZM8.31798 5.54508L10.6506 6.71051L6.78341 14.4273L4.45079 13.2619L8.31798 5.54508ZM27.1266 24.4064L17.7943 22.0035L10.4115 16.614L14.9713 7.50153L22.5 5.05993L22.7971 5.15661L15.8203 11.9277L15.7975 11.9488C15.4257 12.321 15.1421 12.7719 14.9678 13.2682C14.7934 13.7646 14.7327 14.2937 14.7901 14.8167C14.8474 15.3396 15.0214 15.843 15.2992 16.2898C15.577 16.7365 15.9515 17.1153 16.3951 17.398C20.0777 19.7517 24.4811 19.5197 28.0547 16.9181L31.4297 20.1086L27.1266 24.4064ZM38.2008 14.4273L34.3336 6.71051L36.6662 5.54508L40.5246 13.2619L38.2008 14.4273ZM20.8389 31.4957C20.7696 31.7639 20.6483 32.0159 20.4816 32.2372C20.315 32.4586 20.1064 32.6449 19.8678 32.7856C19.6291 32.9263 19.3651 33.0186 19.0908 33.0573C18.8164 33.0959 18.5372 33.0802 18.269 33.0109L13.5932 31.8033C13.3348 31.7366 13.0914 31.6215 12.876 31.464L8.59923 28.3316C8.16181 27.9963 7.87298 27.5032 7.79455 26.9576C7.71612 26.4121 7.85432 25.8575 8.17958 25.4126C8.50484 24.9677 8.99131 24.6677 9.53492 24.5769C10.0785 24.4861 10.6361 24.6117 11.0883 24.9267L15.0381 27.8131L19.3236 28.9187C19.5926 28.9879 19.8453 29.1095 20.0672 29.2766C20.2891 29.4437 20.4758 29.653 20.6166 29.8924C20.7573 30.1319 20.8495 30.3968 20.8876 30.6719C20.9258 30.947 20.9092 31.227 20.8389 31.4957Z" fill="url(#paint0_linear_199_391)"/>
<defs>
<linearGradient id="paint0_linear_199_391" x1="40" y1="27.4995" x2="1.34152e-05" y2="0.999512" gradientUnits="userSpaceOnUse">
<stop stop-color="#0054F7"/>
<stop offset="1" stop-color="#003FB9"/>
</linearGradient>
</defs>
</svg>
