<svg width="26" height="35" viewBox="0 0 26 35" fill="none" xmlns="http://www.w3.org/2000/svg">
<g id="Group">
<path id="Vector" d="M15.7175 10.0633C15.5479 9.58317 15.2336 9.16743 14.8179 8.87338C14.4021 8.57933 13.9055 8.42145 13.3962 8.42148H11.4935C10.9523 8.423 10.4307 8.62411 10.0286 8.98629C9.62645 9.34848 9.37207 9.84627 9.31415 10.3843C9.25622 10.9224 9.39883 11.463 9.71466 11.9024C10.0305 12.3419 10.4973 12.6494 11.0258 12.7661L13.9255 13.3987C14.5214 13.5257 15.049 13.8693 15.4062 14.3629C15.7635 14.8565 15.9249 15.4651 15.8594 16.0709C15.7939 16.6766 15.506 17.2366 15.0514 17.6424C14.5969 18.0481 14.008 18.2709 13.3987 18.2676H11.7593C11.2501 18.2676 10.7534 18.1097 10.3377 17.8157C9.92198 17.5216 9.60768 17.1059 9.43812 16.6257M12.5766 8.42148V5.95996M12.5766 20.7291V18.2676" stroke="url(#paint0_linear_199_1000)" stroke-width="3" stroke-linecap="round" stroke-linejoin="round"/>
<path id="Vector_2" d="M7.65355 33.5H17.4996M23.6535 12.6534C23.6671 10.6762 23.1513 8.73136 22.1595 7.02084C21.1678 5.31032 19.7362 3.89644 18.0135 2.92599C16.2908 1.95553 14.3398 1.46388 12.3629 1.50207C10.386 1.54026 8.45544 2.1069 6.77151 3.14316C5.08758 4.17942 3.71172 5.64754 2.78676 7.39508C1.86181 9.14263 1.42148 11.1059 1.51148 13.0811C1.60149 15.0563 2.21855 16.9714 3.29861 18.6276C4.37867 20.2837 5.88235 21.6206 7.65355 22.4994V26.1917C7.65355 26.5182 7.78322 26.8312 8.01403 27.062C8.24484 27.2928 8.55789 27.4225 8.88431 27.4225H16.2689C16.5953 27.4225 16.9084 27.2928 17.1392 27.062C17.37 26.8312 17.4996 26.5182 17.4996 26.1917V22.4994C19.3396 21.5929 20.8902 20.1912 21.9773 18.4519C23.0644 16.7125 23.6449 14.7045 23.6535 12.6534Z" stroke="url(#paint1_linear_199_1000)" stroke-width="3" stroke-linecap="round" stroke-linejoin="round"/>
</g>
<defs>
<linearGradient id="paint0_linear_199_1000" x1="12.5876" y1="5.95996" x2="12.5876" y2="20.7291" gradientUnits="userSpaceOnUse">
<stop stop-color="#0054F7"/>
<stop offset="1" stop-color="#003FB9"/>
</linearGradient>
<linearGradient id="paint1_linear_199_1000" x1="12.5769" y1="1.5" x2="12.5769" y2="33.5" gradientUnits="userSpaceOnUse">
<stop stop-color="#0054F7"/>
<stop offset="1" stop-color="#003FB9"/>
</linearGradient>
</defs>
</svg>
