<svg width="30" height="33" viewBox="0 0 30 33" fill="none" xmlns="http://www.w3.org/2000/svg">
<g id="Group">
<g id="Group_2">
<path id="Vector" d="M10.3815 5.29243C11.2588 2.72526 14.8059 2.64751 15.8459 5.05918L15.934 5.29389L17.1178 8.7559C17.3891 9.54986 17.8275 10.2764 18.4035 10.8865C18.9794 11.4967 19.6795 11.9762 20.4566 12.2927L20.7749 12.4115L24.2369 13.5939C26.8041 14.4711 26.8818 18.0182 24.4716 19.0583L24.2369 19.1463L20.7749 20.3302C19.9807 20.6013 19.2538 21.0396 18.6434 21.6156C18.0331 22.1915 17.5533 22.8918 17.2366 23.6689L17.1178 23.9858L15.9354 27.4493C15.0582 30.0164 11.5111 30.0942 10.4725 27.684L10.3815 27.4493L9.19918 23.9873C8.92806 23.193 8.48973 22.4662 7.91376 21.8558C7.33778 21.2454 6.63758 20.7657 5.8604 20.449L5.54354 20.3302L2.08153 19.1478C-0.487099 18.2705 -0.564848 14.7235 1.84682 13.6849L2.08153 13.5939L5.54354 12.4115C6.3375 12.1402 7.06405 11.7018 7.67418 11.1259C8.2843 10.5499 8.76381 9.84979 9.08036 9.07276L9.19918 8.7559L10.3815 5.29243ZM13.1585 6.24008L11.9761 9.70208C11.563 10.9128 10.891 12.0188 10.0068 12.9433C9.12261 13.8678 8.04755 14.5884 6.85646 15.055L6.48972 15.1885L3.02772 16.3708L6.48972 17.5532C7.7004 17.9663 8.80649 18.6384 9.73095 19.5225C10.6554 20.4067 11.376 21.4818 11.8426 22.6729L11.9761 23.0396L13.1585 26.5016L14.3409 23.0396C14.754 21.8289 15.426 20.7228 16.3102 19.7984C17.1944 18.8739 18.2694 18.1533 19.4605 17.6867L19.8273 17.5547L23.2893 16.3708L19.8273 15.1885C18.6166 14.7754 17.5105 14.1033 16.586 13.2192C15.6616 12.335 14.9409 11.2599 14.4743 10.0688L14.3423 9.70208L13.1585 6.24008ZM24.8941 0.234375C25.1685 0.234375 25.4375 0.311358 25.6703 0.456576C25.9032 0.601795 26.0907 0.809424 26.2114 1.05587L26.2818 1.2275L26.7953 2.73259L28.3018 3.24603C28.5769 3.33947 28.818 3.51245 28.9946 3.74305C29.1712 3.97366 29.2754 4.2515 29.2939 4.54138C29.3124 4.83125 29.2445 5.1201 29.0987 5.37133C28.9529 5.62255 28.7358 5.82484 28.4749 5.95255L28.3018 6.02297L26.7967 6.5364L26.2833 8.04296C26.1897 8.31791 26.0166 8.55888 25.7859 8.73535C25.5552 8.91182 25.2773 9.01583 24.9875 9.03421C24.6976 9.05259 24.4088 8.98452 24.1577 8.8386C23.9065 8.69269 23.7044 8.47552 23.5768 8.21459L23.5064 8.04296L22.9929 6.53787L21.4864 6.02443C21.2113 5.931 20.9703 5.75801 20.7936 5.52741C20.617 5.2968 20.5128 5.01896 20.4943 4.72909C20.4758 4.43921 20.5437 4.15036 20.6895 3.89913C20.8353 3.64791 21.0524 3.44562 21.3133 3.31791L21.4864 3.24749L22.9915 2.73406L23.5049 1.2275C23.6038 0.937669 23.791 0.686062 24.0401 0.50796C24.2892 0.329857 24.5879 0.234191 24.8941 0.234375Z" fill="url(#paint0_linear_199_539)"/>
</g>
</g>
<defs>
<linearGradient id="paint0_linear_199_539" x1="29.0001" y1="24.9995" x2="7.00009" y2="7.99951" gradientUnits="userSpaceOnUse">
<stop stop-color="#0054F7"/>
<stop offset="1" stop-color="#003FB9"/>
</linearGradient>
</defs>
</svg>
